<?xml version="1.0" encoding="UTF-8"?>
<svg width="88px" height="38px" viewBox="0 0 88 38" version="1.1" xmlns="http://www.w3.org/2000/svg" xmlns:xlink="http://www.w3.org/1999/xlink">
    <!-- Generator: Sketch 43.2 (39069) - http://www.bohemiancoding.com/sketch -->
    <title>Twinkle Logo</title>
    <desc>Created with Sketch.</desc>
    <defs>
        <path d="M51.3300324,3.61700393 C49.445152,5.66767527 48.1780169,8.13861466 47.010529,10.6767969 C49.0610391,8.74143295 50.6999435,6.52549564 51.3300324,3.61700393 M62.3478913,24.0168153 C62.398276,24.0488978 62.4485484,24.0809802 62.4989331,24.1129442 C64.5354163,22.9222242 66.4362312,21.5545181 67.5721867,19.3054328 C67.8070533,18.8406519 67.8802177,18.2555914 67.9190442,17.7171748 C67.9709999,16.9975101 67.6547772,16.7278282 67.024576,17.0300661 C66.4106462,17.3246089 65.8092844,17.7395496 65.3301251,18.2381888 C64.0445866,19.5759434 63.2109392,21.2271825 62.6242776,23.0189451 C62.517112,23.3460438 62.4392346,23.6839157 62.3478913,24.0168153 M63.4640969,6.31015266 C61.8092579,7.25143471 56.3058831,17.9881589 56.3858926,20.0511423 C56.5302015,19.8475194 56.6215447,19.7247538 56.7068283,19.5974895 C57.9249254,17.7821683 59.2139425,16.0140829 60.3401352,14.1373196 C61.5584567,12.107129 62.5878076,9.95642198 63.218682,7.62553248 C63.3232667,7.23935941 63.3680406,6.83519176 63.4640969,6.31015266 M31.5787935,18.0099418 C32.24726,17.0687781 32.9671212,16.1503444 33.7713682,15.3396414 C34.5158045,14.589315 35.4692979,14.1858576 36.5423005,14.334668 C37.546403,14.4738892 38.1708811,15.1535396 38.5980848,16.0661724 C39.1636499,17.2745319 39.1210081,18.5392427 38.906228,19.8250262 C38.7511464,20.7535227 38.6207523,21.6874648 38.5103324,22.622946 C38.4816053,22.8669382 38.554433,23.129517 38.6058276,23.3776527 C38.7136665,23.899377 39.0123837,24.1562733 39.5353069,24.0813353 C40.0839275,24.0027275 40.2935457,23.7487908 40.3120612,23.1382775 C40.3711987,21.1839719 40.8719033,19.3257951 41.4850477,17.5051466 C43.1516693,12.5567566 45.3650038,7.89450403 48.2364811,3.59889097 C48.9116805,2.58870863 49.7100924,1.66305344 50.5106363,0.756339907 C50.9232519,0.288954476 51.4466241,-0.184942151 52.1349527,0.0727827945 C52.7884946,0.317603735 52.8954358,0.984113354 53.005519,1.61439705 C53.2586767,3.06355234 52.846061,4.39775543 52.2955328,5.67584386 C50.9297604,8.84644077 48.8289778,11.3566841 46.0543424,13.2510868 C45.7485557,13.4598002 45.4699251,13.807498 45.3184345,14.1579187 C44.2992952,16.5160368 43.5903189,18.9817672 43.1331538,21.5278813 C43.120249,21.5996229 43.1315828,21.6763366 43.1315828,21.9369028 C43.3111273,21.602109 43.4148142,21.4253596 43.5035765,21.2405601 C44.5219303,19.1205149 45.6826853,17.0925736 47.2484254,15.372079 C47.9410182,14.6110979 48.72271,13.9062314 49.5611827,13.3346668 C50.9191,12.4087749 52.1207014,13.0532648 52.2751096,14.7468859 C52.4285079,16.4303258 52.0080372,17.9520513 50.8982279,19.2193667 C50.1543527,20.0689001 49.300731,20.7562455 48.3023515,21.2516883 C48.1388538,21.3329006 47.9315921,21.6582236 47.9715408,21.7986287 C48.2600463,22.8107052 48.5268943,23.8448014 48.9580254,24.7922395 C49.3920742,25.745952 50.0291204,25.9335928 50.9749832,25.5541677 C51.7989801,25.2235174 52.4207651,24.7486737 52.6440735,23.6963461 C53.5446013,19.4512836 55.1910241,15.4954366 57.1803769,11.7112483 C58.3561688,9.47471192 59.7121784,7.34128921 61.0393487,5.19744859 C61.4429872,4.54550037 61.9838649,3.97192326 62.5272114,3.4359927 C63.4625259,2.51353392 64.2103286,2.72437826 64.6397766,3.98672143 C65.0200742,5.10463446 64.9530817,6.23746404 64.6720946,7.3623618 C64.0133908,10.0001062 62.8471372,12.4027372 61.5332083,14.7277074 C59.9458107,17.5365187 58.1085096,20.1399313 55.7398691,22.2873235 C55.6184522,22.3974219 55.4888435,22.5495471 55.4534957,22.7048687 C55.1043939,24.2416291 54.8067989,25.7888075 55.1087703,27.3765921 C55.3159197,28.4655007 56.0099713,28.8507266 56.9824291,28.3941143 C57.9892248,27.9214015 58.7075149,27.0818125 59.2874435,26.1250219 C59.445106,25.8649293 59.4260294,25.4828997 59.478995,25.155209 C60.0624024,21.5416141 61.7610053,18.6499331 64.5594304,16.4880979 C65.4785859,15.7780224 66.5012039,15.3131231 67.675537,15.326619 C69.0873176,15.3429562 69.8497084,16.1285615 69.9205162,17.6208091 C69.9999646,19.2953701 69.3099528,20.6393992 68.2929455,21.8295273 C66.7723161,23.6090961 64.8651049,24.7351777 62.6903724,25.356109 C62.2068367,25.4941463 61.9783664,25.7043987 62.0566926,26.23808 C62.1050574,26.5674281 62.1021398,26.9074308 62.1718255,27.2307413 C62.4825497,28.6731486 63.545453,29.3823953 64.9320974,29.1355618 C66.8821748,28.7883376 68.3187551,27.5874364 69.4569548,25.9951532 C70.3280822,24.7762575 71.0446891,23.4344777 71.8536491,22.10868 C72.4851968,22.2441128 72.5885471,22.4232299 72.3208014,23.1430129 C71.2939192,25.9037597 69.7121324,28.1947533 67.2298178,29.6866457 C65.8881717,30.4929685 64.4487861,30.9057782 62.879343,30.7128101 C61.4013553,30.5310886 60.4143095,29.6833309 59.7936467,28.2990508 C59.7538103,28.2103802 59.7293474,28.1141329 59.6915308,28.0242784 C59.6539387,27.9350158 59.6086037,27.8494232 59.3508452,27.5505002 C59.2645516,27.7457176 59.2176456,27.9791736 59.0857926,28.1299965 C58.1648417,29.1832711 57.1027239,29.9627204 55.7004816,30.1526105 C54.1534815,30.3620343 53.0060801,29.6476969 52.5563211,28.0780254 C52.4117878,27.5734669 52.3455808,27.0439292 52.2275303,26.4438337 C52.0653792,26.5436326 51.909961,26.6660431 51.7361395,26.7413362 C51.1360121,27.0014288 50.5478918,27.3561114 49.9216182,27.4714187 C48.6873621,27.6984819 47.7481201,27.1230106 47.0941293,26.0071101 C46.1643134,24.4208646 45.9440348,22.6598822 45.9275391,20.8443242 C45.9237238,20.4380257 46.1967436,20.3665209 46.4720077,20.2970287 C48.3723738,19.8175679 49.4387558,18.4216861 50.0857892,16.593816 C50.1912715,16.2957216 50.1238302,15.9294373 50.1362861,15.5947619 C49.8070464,15.6750272 49.4280953,15.6711204 49.1568709,15.8494088 C47.4605123,16.9649541 46.2243486,18.5425575 45.3569243,20.4150589 C44.5867908,22.0773078 43.9265159,23.7962634 43.2178763,25.490358 C43.1349492,25.6885351 43.0719965,25.8994978 42.965953,26.0827584 C42.625604,26.6710153 42.0959478,26.8468175 41.4744995,26.8105916 C40.9001816,26.7772069 40.6198678,26.3902052 40.4434653,25.8741634 C40.3747896,25.6733818 40.3117246,25.4705876 40.2438343,25.2615191 C39.8045114,25.3873627 39.3980676,25.5333319 38.9805145,25.6182142 C37.232649,25.9736071 35.969217,24.9315791 35.9601276,23.0434508 C35.9549657,21.9451898 36.139672,20.8474023 36.1872513,19.7470103 C36.2098066,19.223155 36.1668282,18.6800029 36.0556228,18.1694069 C35.8662034,17.3005766 35.2608018,16.932043 34.4974012,17.3085085 C33.9071487,17.5996181 33.3219459,18.0248583 32.8947423,18.5386508 C31.4700569,20.2525158 30.6336041,22.3319548 29.8237463,24.4151821 C29.4977608,25.2537056 29.2224967,26.1148408 28.8769858,26.9438935 C28.7903556,27.1518966 28.5099296,27.4253668 28.3391379,27.4102135 C27.797138,27.3620307 27.2504251,27.2351215 26.7365912,27.0454682 C26.555588,26.9785804 26.4639081,26.642366 26.3123052,26.398137 C25.5390296,27.2218624 24.5721826,27.776853 23.4334217,27.9882892 C22.0861649,28.2383191 21.162633,27.7935453 20.4721723,26.5443429 C20.4075363,26.4272598 20.3399827,26.3120708 20.2507715,26.1556838 C19.4633568,26.4761529 18.6427263,26.776615 17.8622689,26.34439 C17.170686,25.9614134 16.5606837,25.4143546 15.8786391,24.9132293 C15.7683314,25.3031907 15.6369273,25.7660775 15.5061965,26.2290827 C15.0191821,27.9541943 14.4734791,29.6639157 13.4427816,31.1189903 C13.0069374,31.7341207 12.4439533,32.307461 11.8266569,32.7073668 C10.8821408,33.3191823 9.83663084,33.0592081 9.30383261,32.0421594 C8.7960584,31.0730568 8.49453589,29.9824908 8.11738028,28.9392789 C8.0265981,28.6883019 7.99495339,28.4134111 7.81406233,28.1350871 C7.71946483,28.5156961 7.62127645,28.8954763 7.53105535,29.2771507 C7.17600615,30.7789875 6.69976443,32.2298002 5.8170789,33.4875263 C4.69369156,35.0880965 3.03728156,35.3129103 1.70416384,34.0138677 C1.30232086,33.6223673 0.924604166,33.1217156 0.732042717,32.5917043 C0.428724769,31.7566139 0.181402254,30.8646985 0.105544713,29.9783473 C-0.0848846461,27.7538862 -0.0677157056,25.5240978 0.581898649,23.3619075 C0.907210795,22.2792733 1.52114069,21.9791664 2.52513095,22.3429646 C2.91373252,22.4837248 3.11044594,22.7279538 2.99845507,23.1942738 C2.54061666,25.1009885 2.35512477,27.048783 2.50728872,28.9995371 C2.5834829,29.977637 2.84718885,30.9771646 3.21368401,31.8824575 C3.63056384,32.9119367 4.48598105,32.9724316 5.05670805,32.0284267 C5.55292409,31.2077793 5.96677411,30.2965671 6.23743741,29.3671236 C6.69718348,27.7892834 7.0979043,26.1805447 7.36183468,24.5555871 C7.5131009,23.6236575 7.34376802,22.634311 7.32356927,21.6706541 C7.31324546,21.1804203 7.4587887,20.7828822 7.92145237,20.5703805 C8.89020703,20.1253699 9.59222593,20.6308754 9.60973151,21.8067973 C9.6477725,24.3636844 10.0725074,26.8596032 10.6811632,29.3242681 C10.7832791,29.7379066 10.9601304,30.1401801 11.1570682,30.5158168 C11.3481709,30.880207 11.683358,30.9422409 11.9450441,30.624613 C12.2719272,30.2279036 12.5909553,29.7998221 12.8083163,29.3310161 C13.8277923,27.132363 14.3638448,24.7682072 14.6873615,22.368891 C14.7974447,21.5525055 14.4245533,20.6742045 14.3556531,19.8167392 C14.3026875,19.1581614 14.3058295,18.4735389 14.4180448,17.8263261 C14.5687499,16.9573775 15.3444943,16.4839544 16.1533421,16.6442482 C16.8518824,16.7826407 17.4541419,17.6927874 17.3530359,18.4759066 C17.3001825,18.8851648 17.227467,19.2917001 17.157108,19.6981171 C16.8945242,21.2134498 17.2380152,22.6392832 17.7727211,24.0210772 C18.1180076,24.9135845 18.6311681,25.2560733 19.2738251,25.1814906 C19.7782329,25.1230082 20.0225256,24.904824 20.0122018,24.3097007 C19.9700088,21.9020975 20.3809412,19.5637497 21.1295295,17.296078 C21.3369034,16.6679252 21.6222669,16.0572935 21.9499355,15.4885702 C22.1771715,15.0942285 22.5034936,14.7397828 22.8481068,14.4504489 C23.2461344,14.116247 23.7318022,13.985076 24.1998522,14.3341945 C24.6521921,14.6717112 24.6611693,15.1797028 24.529653,15.6713572 C24.3626766,16.2954849 24.1136709,16.8947516 23.9376051,17.5165116 C23.4523861,19.2306133 22.8940028,20.9307456 22.5541027,22.6774033 C22.3940837,23.4992345 22.6227784,24.4234691 22.7630476,25.2854329 C22.8552885,25.8515517 23.2764325,26.1135386 23.8422221,26.1076193 C24.5986654,26.0998059 25.1928454,25.7950819 25.7136366,25.2077721 C26.9691013,23.7921199 27.3339133,22.0581294 27.4037112,20.2094235 C27.4289596,19.5400726 27.4290718,18.8684725 27.4117907,18.1987664 C27.3865422,17.2205481 27.990485,16.436837 28.9145779,16.288145 C29.7813289,16.1485686 30.2858489,16.5815039 30.30313,17.5155645 C30.320299,18.4380233 30.3069453,19.361074 30.3069453,20.2769032 C30.7205709,19.5265767 31.0796599,18.7129141 31.5787935,18.0099418 Z" id="path-1"></path>
    </defs>
    <g id="Symbols" stroke="none" stroke-width="1" fill="none" fill-rule="evenodd">
        <g id="Footer" transform="translate(-147.000000, -262.000000)">
            <g transform="translate(-374.000000, 54.000000)" id="Footer-Info">
                <g transform="translate(521.000000, 207.000000)">
                    <g id="Twinkle-Logo" transform="translate(0.000000, 1.000000)">
                        <g id="&quot;winkle&quot;" transform="translate(15.000000, 0.000000)">
                            <mask id="mask-2" fill="white">
                                <use xlink:href="#path-1"></use>
                            </mask>
                            <use id="Mask" fill="#004E86" xlink:href="#path-1"></use>
                        </g>
                        <g id="&quot;T&quot;-and-Star" transform="translate(0.000000, 2.000000)" fill="#004E86">
                            <path d="M2.27864382,17.7257227 C4.45180527,17.9993113 6.52038205,17.5752549 8.4933514,16.6163334 C8.6524727,16.5390278 8.77759275,16.2277926 8.797006,16.0130416 C8.89272565,14.9556235 8.96229913,13.8948906 9.01055171,12.8339209 C9.03725895,12.2463744 9.3200415,11.8368794 9.7184058,11.4831439 C10.0329453,11.2038728 10.3436694,10.9177354 10.6762756,10.6641539 C10.8129538,10.5599748 11.0388432,10.4432468 11.1580158,10.4966386 C11.2760663,10.5495569 11.3766112,10.8116621 11.3714493,10.9781119 C11.3341939,12.1790131 11.2683235,13.3788488 11.2109815,14.5789212 C11.2037997,14.7302177 11.1941492,14.8813959 11.179449,15.1421988 C11.4118469,15.0003732 11.5759056,14.920463 11.7187557,14.8100095 C14.8605596,12.3812153 16.7174983,9.12123742 17.329745,5.07435201 C17.4052659,4.57488415 17.568988,4.29360051 18.0384968,4.09092476 C19.5751731,3.42761155 20.6559186,2.23274803 21.379034,0.667456703 C21.4813743,0.44595768 21.5797871,0.222564491 21.6799954,3.55271368e-15 C21.7381229,0.0134959319 21.7963627,0.0271102492 21.8546024,0.0406061811 C21.7836823,0.8098743 21.7624736,1.58861325 21.6335383,2.34698991 C20.9223177,6.53285974 19.0777227,10.1391148 16.4944143,13.3550533 C15.0114892,15.2011547 13.3572112,16.8433966 11.3901893,18.1182886 C11.2130013,18.233004 11.0530945,18.5502768 11.0541045,18.7724861 C11.0729567,22.5794044 11.0605008,26.3882168 11.1865185,30.1918203 C11.2366788,31.7090472 11.6056427,33.2144355 11.8406215,34.8003259 C10.4197514,35.5627277 8.95567843,35.0405298 8.39886612,33.3975777 C8.14660614,32.6530521 8.00802025,31.8180801 8.02373039,31.0288048 C8.07916474,28.2514841 8.21371088,25.475584 8.34040196,22.7002759 C8.38427814,21.7372109 8.49537128,20.7776975 8.56797458,19.8159348 C8.57627851,19.705718 8.5336367,19.5913577 8.50558287,19.4251447 C5.3682676,20.1645797 2.44371252,19.9254412 0,17.3944804 C0.759473131,17.5057627 1.51748746,17.6298306 2.27864382,17.7257227 Z" id="Fill-4"></path>
                            <path d="M40.4960632,4.27130168 C40.4530847,4.54181225 40.5109878,4.8909307 40.6480027,5.12119024 C41.1009037,5.88264492 41.6110344,6.60621629 42.1764873,7.4613138 C41.599364,7.54749835 41.151625,7.61888472 40.7025393,7.67985319 C40.3885609,7.72247192 40.0671763,7.80770939 39.7590331,7.77349601 C39.1219869,7.70293834 38.7854532,8.05572673 38.4635075,8.56525735 C38.0644699,9.19648813 37.5926046,9.77645805 37.0662026,10.4961227 C36.6597588,9.52761201 36.2861941,8.69986152 35.9680637,7.84890749 C35.8366596,7.49765811 35.6463425,7.32765672 35.3160929,7.21838703 C34.5046641,6.94977063 33.7055789,6.63948258 32.7753141,6.29983496 C33.5161595,5.59508687 34.1775565,5.00043716 34.7945162,4.35819654 C34.9793348,4.16570194 35.1203894,3.84760045 35.1418225,3.57484057 C35.1955736,2.88950767 35.1622457,2.19707166 35.1796391,1.50795043 C35.1853621,1.2808873 35.239562,1.0551264 35.2892734,0.704468944 C36.1081084,1.20689644 36.8583799,1.63474116 37.5733036,2.12059471 C37.8934538,2.33818702 38.1611995,2.35866769 38.5086181,2.23436305 C39.298726,1.95154041 40.1021875,1.71038941 41.0620772,1.39998298 C40.845165,2.47208087 40.6395866,3.36612716 40.4960632,4.27130168 Z" id="Fill-6"></path>
                        </g>
                    </g>
                </g>
            </g>
        </g>
    </g>
</svg>