<?xml version="1.0" encoding="UTF-8"?>
<svg width="109px" height="47px" viewBox="0 0 109 47" version="1.1" xmlns="http://www.w3.org/2000/svg" xmlns:xlink="http://www.w3.org/1999/xlink">
    <!-- Generator: Sketch 44 (41411) - http://www.bohemiancoding.com/sketch -->
    <title>Group 11 Copy</title>
    <desc>Created with Sketch.</desc>
    <defs>
        <path d="M63.6320214,4.51231209 C61.295402,7.07058111 59.7245795,10.1531461 58.2772861,13.3195985 C60.8192308,10.9051785 62.8509225,8.14073567 63.6320214,4.51231209 M77.2904705,29.9616391 C77.3529306,30.0016628 77.4152515,30.0416865 77.4777116,30.0815625 C80.0022677,28.5961065 82.3586405,26.8898554 83.7668442,24.0840596 C84.0580001,23.5042325 84.1486993,22.7743534 84.1968312,22.1026638 C84.2612388,21.2048623 83.8692287,20.8684268 83.0879907,21.2454768 C82.3269236,21.6129271 81.5814367,22.130577 80.9874399,22.7526431 C79.3938035,24.4215289 78.3603603,26.4814952 77.6330968,28.7167684 C77.5002473,29.1248331 77.4037055,29.5463376 77.2904705,29.9616391 M78.6741909,7.87208936 C76.6227457,9.04636467 69.8004071,22.440724 69.899592,25.0143526 C70.0784866,24.7603275 70.1917216,24.607174 70.2974447,24.4484083 C71.8074764,22.1837451 73.4054252,19.9780097 74.8015264,17.6366959 C76.3118364,15.1039771 77.5878862,12.4209108 78.3699588,9.51306194 C78.4996087,9.03130039 78.5551134,8.52709011 78.6741909,7.87208936 M39.1471108,22.4678987 C39.975785,21.2937711 40.8681713,20.1479998 41.8651679,19.1366254 C42.7880191,18.2005725 43.9700311,17.6972484 45.3001945,17.8828935 C46.5449447,18.0565757 47.3190881,18.9044583 47.8486773,20.0429929 C48.5497883,21.5504546 48.4969268,23.1282163 48.2306715,24.7322666 C48.0384224,25.8905915 47.8767774,27.0557101 47.7398938,28.2227487 C47.7042818,28.5271357 47.7945638,28.8547099 47.8582758,29.1642661 C47.9919599,29.8151316 48.3622689,30.1356167 49.0105184,30.0421296 C49.6906239,29.9440641 49.9504801,29.6272711 49.9734331,28.8656389 C50.0467437,26.4275888 50.6674496,24.1094621 51.4275429,21.8381528 C53.4935946,15.6648999 56.237387,9.84861136 59.7970555,4.48971567 C60.6340763,3.22948536 61.6238391,2.074705 62.6162451,0.94355488 C63.1277501,0.360478673 63.776556,-0.23072043 64.6298526,0.0907985422 C65.4400253,0.396219413 65.5725965,1.22770853 65.7090627,2.01400482 C66.0228933,3.82186598 65.5113884,5.48632111 64.828918,7.08077165 C63.1358184,11.0361787 60.5315527,14.1677764 57.0919355,16.531096 C56.7128626,16.7914717 56.3674542,17.2252343 56.1796566,17.6623938 C54.9162657,20.6042111 54.037373,23.6802778 53.4706416,26.8566253 C53.454644,26.9461249 53.468694,27.0418273 53.468694,27.3668909 C53.691269,26.9492263 53.819806,26.7287266 53.9298415,26.4981841 C55.1922586,23.8533693 56.6312055,21.3234566 58.5721979,19.1770922 C59.4307806,18.2277473 60.3998162,17.3484069 61.4392411,16.6353644 C63.122603,15.4802887 64.6121857,16.2843076 64.8036001,18.3971466 C64.9937626,20.4972843 64.4725199,22.3956788 63.0967287,23.9766897 C62.174573,25.036506 61.1163683,25.8939884 59.8787127,26.5120669 C59.6760304,26.6133815 59.4190954,27.0192309 59.4686184,27.1943901 C59.8262684,28.4569834 60.1570704,29.7470469 60.6915284,30.9290021 C61.2296033,32.1187847 62.019327,32.3528718 63.1918795,31.8795285 C64.2133592,31.4670331 64.984164,30.8746525 65.2609916,29.5618449 C66.3773439,24.2660124 68.4183559,19.3309842 70.884486,14.610105 C72.3420736,11.8199643 74.0230706,9.15846063 75.6683166,6.48396036 C76.1686929,5.67063699 76.8391998,4.95508374 77.5127672,4.2864956 C78.6722434,3.13570284 79.599268,3.39873697 80.1316393,4.97354487 C80.6030809,6.36817218 80.5200326,7.78140831 80.1717028,9.18474927 C79.3551311,12.4754081 77.9093679,15.4727565 76.2805368,18.373221 C74.3126963,21.8772904 72.0350593,25.1251194 69.0987396,27.8040503 C68.9482233,27.9414011 68.7875521,28.1311815 68.7437326,28.3249495 C68.3109635,30.2421005 67.9420456,32.1722481 68.3163888,34.1530531 C68.5731846,35.5114966 69.4335758,35.9920767 70.6390972,35.4224402 C71.8871861,34.8327179 72.7776249,33.7853075 73.4965419,32.5916849 C73.6919905,32.2672122 73.6683419,31.7906197 73.7340015,31.3818166 C74.4572309,26.8737573 76.5629287,23.2663055 80.0320371,20.5693565 C81.1714816,19.6835178 82.4391848,19.1035431 83.8949639,19.1203797 C85.6450984,19.1407607 86.5902071,20.120825 86.6779851,21.982445 C86.7764745,24.071506 85.9210913,25.7482193 84.6603434,27.2329369 C82.775273,29.4529981 80.4109709,30.857816 77.7150321,31.6324448 C77.1156101,31.8046502 76.8323835,32.0669459 76.9294818,32.7327279 C76.9894379,33.1435987 76.9858211,33.5677616 77.072208,33.9711003 C77.4574017,35.7705432 78.7750452,36.655348 80.4940191,36.3474164 C82.911461,35.9142446 84.6923386,34.4160873 86.1033245,32.4296701 C87.1832302,30.909064 88.0715823,29.2351568 89.0744214,27.5811876 C89.8573287,27.7501438 89.9854484,27.9735973 89.6535336,28.8715465 C88.3805441,32.3156542 86.4196591,35.1737319 83.3424217,37.0349088 C81.6792306,38.0408186 79.8948753,38.5558102 77.9492922,38.3150771 C76.1170833,38.0883745 74.8934777,37.0307735 74.124064,35.3038459 C74.0746802,35.1932268 74.0443544,35.0731557 73.9974745,34.9610597 C73.9508729,34.8497022 73.8946727,34.742923 73.5751386,34.3700083 C73.4681635,34.6135475 73.4100159,34.9047902 73.2465624,35.092946 C72.1048922,36.4069351 70.7882224,37.3793195 69.0499123,37.6162127 C67.1321511,37.8774746 65.7097582,36.9863191 65.1522081,35.0281105 C64.9730353,34.3986599 64.8909608,33.738047 64.7446177,32.9894114 C64.5436048,33.1139133 64.3509384,33.2666237 64.135458,33.3605539 C63.3915013,33.6850267 62.6624294,34.1275029 61.8860602,34.271352 C60.3559967,34.5546195 59.1916517,33.8367033 58.3809225,32.4445867 C57.2282627,30.4657016 56.9551911,28.2688276 56.934742,26.003869 C56.9300123,25.4970003 57.2684653,25.4077961 57.6097004,25.3211027 C59.9655169,24.7229622 61.2874728,22.9815611 62.0895772,20.7012428 C62.2203399,20.3293619 62.1367352,19.8724121 62.1521764,19.4548953 C61.7440296,19.5550284 61.2742574,19.5501547 60.9380302,19.7725743 C58.8351145,21.1642479 57.3026862,23.1323516 56.2273711,25.4683486 C55.2726638,27.54205 54.4541445,29.6864944 53.5756691,31.7999241 C53.4728673,32.0471555 53.394827,32.3103374 53.2633687,32.5389599 C52.8414501,33.2728266 52.1848541,33.4921448 51.4144666,33.446952 C50.7025051,33.4053037 50.35501,32.9225083 50.1363302,32.2787319 C50.0511952,32.0282514 49.9730158,31.7752601 49.8888547,31.5144413 C49.3442417,31.6714347 48.8403877,31.8535353 48.3227619,31.9594283 C46.155995,32.4027907 44.5897631,31.102832 44.5784953,28.74734 C44.5720962,27.3772291 44.8010702,26.0077089 44.8600525,24.6349396 C44.8880135,23.9814157 44.8347347,23.3038185 44.6968773,22.6668358 C44.4620608,21.5829462 43.711566,21.1231903 42.7652052,21.5928414 C42.0334902,21.9560086 41.308035,22.4865076 40.7784458,23.1274779 C39.0123138,25.2655716 37.9753929,27.8597291 36.9714409,30.4586126 C36.5673283,31.5046938 36.2260932,32.5789837 35.7977755,33.6132498 C35.6903831,33.8727394 35.3427489,34.213901 35.1310245,34.1949968 C34.4591265,34.1348874 33.7813859,33.9765648 33.1444043,33.739967 C32.9200209,33.6565227 32.8063686,33.2370859 32.6184319,32.9324035 C31.6598295,33.9600236 30.4612636,34.6523897 29.0495822,34.9161622 C27.3794356,35.2280814 26.2345659,34.6732138 25.3786262,33.1147994 C25.2984992,32.968735 25.2147554,32.8250336 25.1041635,32.6299364 C24.1280333,33.0297305 23.1107268,33.4045652 22.1432215,32.8653527 C21.2858907,32.3875787 20.5296924,31.7051078 19.6841859,31.0799402 C19.5474415,31.5664278 19.3845444,32.1438918 19.2224821,32.7215036 C18.6187476,34.8736278 17.942259,37.0065525 16.6645398,38.8217981 C16.1242392,39.5891902 15.4263277,40.304448 14.6610873,40.8033415 C13.4902041,41.5665983 12.1941225,41.2422732 11.5336314,39.973477 C10.9041617,38.7644947 10.530375,37.4039836 10.0628285,36.102548 C9.9502891,35.7894473 9.91106027,35.4465135 9.68681604,35.0992966 C9.56954688,35.5741168 9.44782622,36.0479031 9.33598232,36.5240525 C8.89584042,38.3976352 8.30546044,40.207564 7.21122649,41.7766121 C5.81860303,43.7733675 3.76521028,44.0538289 2.11259149,42.4332374 C1.614441,41.9448299 1.14619901,41.320253 0.907487403,40.6590493 C0.531474896,39.6172511 0.224877943,38.5045621 0.130840039,37.3988145 C-0.105228486,34.623738 -0.0839447595,31.8420155 0.721359126,29.1446235 C1.12463706,27.7940075 1.88570418,27.4196158 3.13031531,27.8734642 C3.61205091,28.0490664 3.85590956,28.3537488 3.71707845,28.9354958 C3.1495124,31.314175 2.91956469,33.7441023 3.10819693,36.1777217 C3.20265216,37.3979283 3.52955908,38.6448666 3.98389014,39.7742445 C4.50068128,41.0585481 5.56111167,41.1340172 6.2686217,39.956345 C6.88376313,38.9325648 7.39679833,37.7958025 7.73233002,36.6362961 C8.30226093,34.667897 8.79902033,32.6609511 9.12620546,30.6337717 C9.31372483,29.4711639 9.10380886,28.2369268 9.07876918,27.0347383 C9.06597112,26.4231581 9.24639592,25.9272184 9.81994367,25.6621166 C11.0208745,25.1069536 11.8911424,25.7375857 11.9128435,27.2045806 C11.9600015,30.3943678 12.4865303,33.5080952 13.2410593,36.5828327 C13.3676488,37.0988581 13.5868851,37.6007054 13.831022,38.0693226 C14.0679251,38.5239093 14.4834447,38.6012984 14.8078476,38.2050488 C15.2130731,37.7101429 15.6085609,37.1760995 15.8780157,36.591251 C17.1418239,33.8483707 17.8063492,30.8990212 18.2074013,27.905808 C18.3438676,26.8873446 17.8816073,25.7916399 17.7961942,24.7219284 C17.7305346,23.9003344 17.7344296,23.0462489 17.873539,22.2388331 C18.0603628,21.1547958 19.0220255,20.5641874 20.0247256,20.7641583 C20.8906811,20.9368068 21.6372809,22.0722399 21.5119434,23.0492027 C21.4464229,23.5597636 21.35628,24.0669276 21.2690585,24.573944 C20.9435427,26.4643633 21.3693563,28.2431297 22.0322122,29.9669559 C22.4602516,31.0803833 23.0963986,31.5076476 23.8930777,31.4146035 C24.5183741,31.3416452 24.8212151,31.0694543 24.808417,30.3270217 C24.7561119,27.3234703 25.2655303,24.406317 26.1935286,21.577334 C26.4506026,20.7936961 26.8043576,20.0319162 27.2105569,19.3224182 C27.4922533,18.8304661 27.8967832,18.3882852 28.3239879,18.0273333 C28.8174087,17.6104072 29.4194739,17.4467678 29.9996989,17.8823027 C30.5604485,18.3033641 30.5715773,18.9370976 30.4085412,19.5504501 C30.2015465,20.3290665 29.8928629,21.0766683 29.6746004,21.8523309 C29.0730916,23.9907201 28.3808836,26.111682 27.9595215,28.2906856 C27.7611516,29.3159427 28.0446564,30.4689508 28.2185431,31.5442745 C28.3328909,32.2505233 28.8549682,32.5773591 29.5563574,32.5699746 C30.4940934,32.5602272 31.2306773,32.1800757 31.8762837,31.4473905 C33.4326388,29.6813253 33.8848832,27.5181244 33.9714092,25.2118128 C34.0027088,24.3767792 34.0028479,23.5389394 33.9814251,22.7034627 C33.9501255,21.4831084 34.6988119,20.5054072 35.8443772,20.3199098 C36.9188576,20.1457844 37.5442931,20.6858832 37.565716,21.8511494 C37.5869997,23.0019422 37.5704457,24.1534734 37.5704457,25.2959956 C38.0832026,24.3599426 38.5283525,23.3448761 39.1471108,22.4678987 Z" id="path-1"></path>
    </defs>
    <g id="Discovery" stroke="none" stroke-width="1" fill="none" fill-rule="evenodd">
        <g id="Our-acitivities-[5/10]-Copy-2" transform="translate(-468.000000, -20.000000)">
            <g id="Group-11-Copy" transform="translate(468.000000, 20.000000)">
                <g id="Page-1-Copy">
                    <g id="Group-3">
                        <g id="Group">
                            <g id="Group-2">
                                <g id="Bitmap" transform="translate(18.431699, 0.000000)">
                                    <mask id="mask-2" fill="white">
                                        <use xlink:href="#path-1"></use>
                                    </mask>
                                    <use id="Mask" fill="#FFFFFF" xlink:href="#path-1"></use>
                                </g>
                                <path d="M2.82475396,25.1329114 C5.51874516,25.4742207 8.08308647,24.9451987 10.5289066,23.7489177 C10.7261636,23.6524768 10.8812705,23.2642024 10.9053365,22.9962945 C11.0239967,21.6771363 11.1102445,20.3538428 11.1700615,19.0302539 C11.2031695,18.2972733 11.553725,17.786417 12.0475631,17.3451223 C12.4374866,16.9967239 12.8226803,16.6397596 13.2350003,16.3234097 C13.4044355,16.1934434 13.6844626,16.047822 13.8321967,16.1144298 C13.9785397,16.1804467 14.1031816,16.5074302 14.0967826,16.715081 C14.0505983,18.2132383 13.9689411,19.7100664 13.8978563,21.2071898 C13.8889533,21.3959364 13.8769899,21.5845353 13.8587665,21.9098942 C14.146862,21.7329627 14.3502398,21.6332726 14.527326,21.4954788 C18.4221089,18.4654911 20.72409,14.3985788 21.4830705,9.34997776 C21.576691,8.72687783 21.7796515,8.37596875 22.361685,8.12312517 C24.2666481,7.29562365 25.60641,5.80499848 26.5028305,3.8522544 C26.6296982,3.57592827 26.7516971,3.29723911 26.8759217,3.01958377 C26.9479803,3.03642032 27.0201781,3.05340455 27.0923758,3.0702411 C27.0044587,4.02992428 26.978167,5.00142258 26.8183304,5.94751837 C25.9366555,11.1695064 23.6499764,15.6684089 20.4475406,19.6803809 C18.6092109,21.9834433 16.5584612,24.0321852 14.1200139,25.6226481 C13.9003602,25.7657588 13.7021294,26.1615653 13.7033814,26.4387776 C13.7267518,31.1880131 13.7113107,35.9396116 13.8675304,40.6847117 C13.9297123,42.5774941 14.3871038,44.4555075 14.6783987,46.4339495 C12.9169964,47.3850667 11.102037,46.7336105 10.4117766,44.6839824 C10.0990588,43.7551662 9.92725879,42.7135156 9.9467341,41.728873 C10.0154541,38.2640889 10.1822462,34.801077 10.3393006,31.3388036 C10.3936924,30.1373535 10.5314106,28.940334 10.6214143,27.7405085 C10.6317084,27.6030101 10.5788469,27.4603425 10.5440695,27.2529871 C6.65485102,28.1754527 3.02938378,27.8771209 0,24.7196775 C0.941491915,24.8585052 1.88117541,25.0132833 2.82475396,25.1329114 Z" id="Fill-4" fill="#FFFFFF"></path>
                                <path d="M54.6221949,4.24157248 C54.3532966,5.57904414 54.0984483,6.69439154 53.9205275,7.8236217 C53.8672486,8.16109108 53.939029,8.59662597 54.1088815,8.88388109 C54.6703268,9.8338168 55.3027178,10.736492 56.0036897,11.8032497 C55.2882504,11.9107673 54.7332042,11.9998238 54.1764887,12.0758836 C53.7872608,12.1290517 53.3888517,12.2353878 53.0068575,12.1927057 C52.2171338,12.104683 51.7999449,12.5447962 51.4008403,13.1804497 C50.9061675,13.9679275 50.3212128,14.691456 49.668651,15.5892575 C49.164797,14.3810137 48.7017021,13.3483721 48.3073271,12.2867835 C48.1444301,11.8485903 47.9085007,11.6365088 47.4991019,11.5001919 C46.4932024,11.1650855 45.5026049,10.7779926 44.3493886,10.3542729 C45.2677884,9.4750802 46.0876987,8.73323831 46.8525218,7.93202543 C47.0816348,7.6918831 47.2564953,7.29504274 47.2830651,6.95476726 C47.3496985,6.09979559 47.308383,5.23596257 47.329945,4.37626485 C47.3370396,4.09299733 47.4042294,3.81135439 47.4658548,3.37389955 C48.4809356,4.0006917 49.4110205,4.53443978 50.297286,5.14055547 C50.6941649,5.41200787 51.0260798,5.43755807 51.4567622,5.28248461 C52.436231,4.92965557 53.4322538,4.62881306 54.6221949,4.24157248" id="Fill-6" fill="#FFFFFF"></path>
                            </g>
                        </g>
                    </g>
                </g>
            </g>
        </g>
    </g>
</svg>